<?xml version="1.0" standalone="no"?>
<!DOCTYPE svg PUBLIC "-//W3C//DTD SVG 20010904//EN"
 "http://www.w3.org/TR/2001/REC-SVG-20010904/DTD/svg10.dtd">
<svg version="1.0" xmlns="http://www.w3.org/2000/svg"
 width="384.000000pt" height="384.000000pt" viewBox="0 0 384.000000 384.000000"
 preserveAspectRatio="xMidYMid meet">
<metadata>
Created by potrace 1.11, written by Peter Selinger 2001-2013
</metadata>
<g transform="translate(0.000000,384.000000) scale(0.100000,-0.100000)"
fill="#000000" stroke="none">
<path d="M1815 3834 c-297 -29 -488 -78 -713 -185 -399 -189 -717 -506 -907
-904 -130 -270 -188 -527 -188 -825 0 -298 58 -555 188 -825 151 -316 384
-583 675 -775 315 -207 670 -313 1050 -313 179 0 302 15 472 58 677 172 1211
706 1383 1383 43 170 58 293 58 472 0 393 -108 742 -333 1078 -86 130 -244
303 -365 402 -264 216 -598 364 -938 414 -98 15 -316 26 -382 20z m1268 -1030
c139 -64 254 -118 256 -120 5 -5 -18 -603 -25 -661 -5 -40 -10 -45 -149 -149
-82 -61 -141 -112 -137 -118 3 -6 79 -127 169 -269 90 -142 161 -262 158 -267
-10 -16 -376 -282 -381 -277 -3 3 -86 146 -185 319 -99 172 -185 318 -191 323
-7 7 -9 -80 -5 -288 l5 -299 -22 5 c-11 3 -117 15 -234 28 l-213 24 5 135 c3
74 8 470 12 880 3 410 7 746 8 748 6 5 603 100 639 101 29 1 99 -27 290 -115z
m-1197 12 c0 0 -13 -408 -30 -904 l-30 -904 -86 6 c-47 3 -156 9 -242 12
l-158 6 0 299 0 299 -99 0 c-54 0 -126 3 -161 7 l-63 6 7 -219 c3 -120 9 -263
13 -316 l6 -98 -270 0 -270 0 -7 891 c-4 490 -5 893 -3 895 4 5 477 27 481 23
2 -2 9 -157 15 -344 7 -187 14 -341 16 -344 7 -6 325 25 333 33 4 4 8 156 10
336 l3 329 267 -6 c147 -3 267 -6 268 -7z"/>
<path d="M2643 2428 l-63 -10 0 -129 c0 -146 0 -146 73 -135 33 5 62 23 130
77 48 39 87 76 87 81 0 5 -21 36 -47 68 -53 67 -55 67 -180 48z"/>
</g>
</svg>
